<?xml version="1.0" encoding="UTF-8" standalone="no"?><!DOCTYPE svg PUBLIC "-//W3C//DTD SVG 1.1//EN" "http://www.w3.org/Graphics/SVG/1.1/DTD/svg11.dtd"><svg width="100%" height="100%" viewBox="0 0 394 80" version="1.1" xmlns="http://www.w3.org/2000/svg" xmlns:xlink="http://www.w3.org/1999/xlink" xml:space="preserve" xmlns:serif="http://www.serif.com/" style="fill-rule:evenodd;clip-rule:evenodd;stroke-linejoin:round;stroke-miterlimit:2;"><path d="M194.365,0l-17.8,0l40.883,79.3l8.817,-17.424l32,-61.72l-17.9,-0l-23,44.575l-23,-44.575l-0,-0.156Z" style="fill-rule:nonzero;"/><path d="M106.248,79.367l-14.183,-0.067l-0,-79.2l13.6,0l-0,66.6l33.156,-19.844l-32.573,32.511Z"/><path d="M75.583,13.291l0.038,-13.191l44.951,-0l0,13.6l-37.8,-0l7.382,33.156l-14.571,-33.565Z"/><path d="M136.065,79.3l-0,-79.3l17,0l64,79.3l-17.2,0l-17.534,-21.76l-32.666,0l-0,21.76l-13.6,0Zm35.308,-35.36l-21.708,-26.94l-0,26.829l3.4,0.111l18.308,0Z"/><path d="M258.265,79.3l-0,-79.3l17,0l64,79.3l-17.2,0l-17.534,-21.76l-32.666,0l-0,21.76l-13.6,0Zm35.308,-35.36l-21.708,-26.94l-0,26.829l3.4,0.111l18.308,0Z"/></svg>